<svg xmlns="http://www.w3.org/2000/svg" width="1440" height="900"><path d="M776,480L881,371L793,133Z" fill="#f4d9cc" stroke="#f4d9cc" stroke-width="1.51"/><path d="M793,133L542,109L776,480Z" fill="#fac5b3" stroke="#fac5b3" stroke-width="1.51"/><path d="M370,461L677,643L776,480Z" fill="#f1e4dc" stroke="#f1e4dc" stroke-width="1.51"/><path d="M776,480L1023,765L881,371Z" fill="#dcdcdc" stroke="#dcdcdc" stroke-width="1.51"/><path d="M542,109L370,461L776,480Z" fill="#fdd6bf" stroke="#fdd6bf" stroke-width="1.51"/><path d="M881,371L1022,122L793,133Z" fill="#e2a898" stroke="#e2a898" stroke-width="1.51"/><path d="M793,133L737,-102L542,109Z" fill="#ce8884" stroke="#ce8884" stroke-width="1.51"/><path d="M542,109L308,303L370,461Z" fill="#f3a685" stroke="#f3a685" stroke-width="1.51"/><path d="M1038,45L737,-102L793,133Z" fill="#b67a7b" stroke="#b67a7b" stroke-width="1.51"/><path d="M542,109L179,-54L308,303Z" fill="#d15a4b" stroke="#d15a4b" stroke-width="1.51"/><path d="M1022,122L1038,45L793,133Z" fill="#ca7e78" stroke="#ca7e78" stroke-width="1.51"/><path d="M370,461L551,721L677,643Z" fill="#e0c7bb" stroke="#e0c7bb" stroke-width="1.51"/><path d="M1022,122L1145,189L1038,45Z" fill="#b9726a" stroke="#b9726a" stroke-width="1.51"/><path d="M881,371L1145,189L1022,122Z" fill="#d49f8f" stroke="#d49f8f" stroke-width="1.51"/><path d="M1288,464L1145,189L881,371Z" fill="#c9b3a7" stroke="#c9b3a7" stroke-width="1.51"/><path d="M638,-187L446,-119L542,109Z" fill="#b26c65" stroke="#b26c65" stroke-width="1.51"/><path d="M947,-187L638,-187L737,-102Z" fill="#b37d80" stroke="#b37d80" stroke-width="1.51"/><path d="M737,-102L638,-187L542,109Z" fill="#b67977" stroke="#b67977" stroke-width="1.51"/><path d="M1038,45L947,-187L737,-102Z" fill="#a46f73" stroke="#a46f73" stroke-width="1.51"/><path d="M1145,189L1122,-5L1038,45Z" fill="#a8615e" stroke="#a8615e" stroke-width="1.51"/><path d="M370,461L315,664L551,721Z" fill="#dcaf9d" stroke="#dcaf9d" stroke-width="1.51"/><path d="M308,303L230,538L370,461Z" fill="#f3b0a0" stroke="#f3b0a0" stroke-width="1.51"/><path d="M66,376L230,538L308,303Z" fill="#e79689" stroke="#e79689" stroke-width="1.51"/><path d="M230,538L315,664L370,461Z" fill="#e1a294" stroke="#e1a294" stroke-width="1.51"/><path d="M638,-187L548,-212L446,-119Z" fill="#b36c65" stroke="#b36c65" stroke-width="1.51"/><path d="M1122,-5L947,-187L1038,45Z" fill="#925f62" stroke="#925f62" stroke-width="1.51"/><path d="M638,-187L324,-356L548,-212Z" fill="#b1655d" stroke="#b1655d" stroke-width="1.51"/><path d="M677,643L1023,765L776,480Z" fill="#d1d1d1" stroke="#d1d1d1" stroke-width="1.51"/><path d="M665,902L1023,765L677,643Z" fill="#a8a8a8" stroke="#a8a8a8" stroke-width="1.51"/><path d="M1023,765L1141,689L881,371Z" fill="#bdbdbd" stroke="#bdbdbd" stroke-width="1.51"/><path d="M551,721L665,902L677,643Z" fill="#b5aba4" stroke="#b5aba4" stroke-width="1.51"/><path d="M440,1021L665,902L551,721Z" fill="#88756b" stroke="#88756b" stroke-width="1.51"/><path d="M1141,689L1288,464L881,371Z" fill="#c1c1c1" stroke="#c1c1c1" stroke-width="1.51"/><path d="M1145,189L1365,234L1122,-5Z" fill="#a05e56" stroke="#a05e56" stroke-width="1.51"/><path d="M324,-356L179,-54L446,-119Z" fill="#a03b3a" stroke="#a03b3a" stroke-width="1.51"/><path d="M446,-119L179,-54L542,109Z" fill="#a84d46" stroke="#a84d46" stroke-width="1.51"/><path d="M-21,161L66,376L308,303Z" fill="#cf6756" stroke="#cf6756" stroke-width="1.51"/><path d="M-7,738L288,1013L315,664Z" fill="#8c4a44" stroke="#8c4a44" stroke-width="1.51"/><path d="M1122,-5L1314,-218L947,-187Z" fill="#815053" stroke="#815053" stroke-width="1.51"/><path d="M1288,464L1365,234L1145,189Z" fill="#a78577" stroke="#a78577" stroke-width="1.51"/><path d="M179,-54L-21,161L308,303Z" fill="#bd3335" stroke="#bd3335" stroke-width="1.51"/><path d="M1023,765L1069,944L1141,689Z" fill="#797979" stroke="#797979" stroke-width="1.51"/><path d="M1141,689L1394,704L1288,464Z" fill="#888888" stroke="#888888" stroke-width="1.51"/><path d="M665,902L1069,944L1023,765Z" fill="#787878" stroke="#787878" stroke-width="1.51"/><path d="M179,-54L48,-60L-21,161Z" fill="#7f0623" stroke="#7f0623" stroke-width="1.51"/><path d="M324,-356L48,-60L179,-54Z" fill="#901a29" stroke="#901a29" stroke-width="1.51"/><path d="M548,-212L324,-356L446,-119Z" fill="#ad594f" stroke="#ad594f" stroke-width="1.51"/><path d="M947,-187L324,-356L638,-187Z" fill="#b67977" stroke="#b67977" stroke-width="1.51"/><path d="M665,902L1064,1216L1069,944Z" fill="#6d6d6d" stroke="#6d6d6d" stroke-width="1.51"/><path d="M315,664L440,1021L551,721Z" fill="#a17b6b" stroke="#a17b6b" stroke-width="1.51"/><path d="M288,1013L440,1021L315,664Z" fill="#78493c" stroke="#78493c" stroke-width="1.51"/><path d="M1288,464L1539,381L1365,234Z" fill="#8b7b72" stroke="#8b7b72" stroke-width="1.51"/><path d="M1253,966L1394,704L1141,689Z" fill="#5b5b5b" stroke="#5b5b5b" stroke-width="1.51"/><path d="M1510,-138L1314,-218L1122,-5Z" fill="#5b2e32" stroke="#5b2e32" stroke-width="1.51"/><path d="M947,-187L1533,-358L324,-356Z" fill="#a06c6f" stroke="#a06c6f" stroke-width="1.51"/><path d="M-7,738L230,538L66,376Z" fill="#c37e7b" stroke="#c37e7b" stroke-width="1.51"/><path d="M-7,738L315,664L230,538Z" fill="#bf766f" stroke="#bf766f" stroke-width="1.51"/><path d="M-255,443L-7,738L66,376Z" fill="#ad787b" stroke="#ad787b" stroke-width="1.51"/><path d="M1394,704L1539,381L1288,464Z" fill="#7f7f7f" stroke="#7f7f7f" stroke-width="1.51"/><path d="M1365,234L1510,-138L1122,-5Z" fill="#632f31" stroke="#632f31" stroke-width="1.51"/><path d="M1069,944L1253,966L1141,689Z" fill="#575757" stroke="#575757" stroke-width="1.51"/><path d="M1064,1216L1253,966L1069,944Z" fill="#515151" stroke="#515151" stroke-width="1.51"/><path d="M440,1021L619,1212L665,902Z" fill="#827269" stroke="#827269" stroke-width="1.51"/><path d="M288,1013L398,1135L440,1021Z" fill="#7b4f41" stroke="#7b4f41" stroke-width="1.51"/><path d="M163,1154L398,1135L288,1013Z" fill="#733c32" stroke="#733c32" stroke-width="1.51"/><path d="M398,1135L619,1212L440,1021Z" fill="#816456" stroke="#816456" stroke-width="1.51"/><path d="M1629,50L1510,-138L1365,234Z" fill="#541e20" stroke="#541e20" stroke-width="1.51"/><path d="M1539,381L1615,131L1365,234Z" fill="#7c5445" stroke="#7c5445" stroke-width="1.51"/><path d="M-21,161L-248,290L66,376Z" fill="#ad594f" stroke="#ad594f" stroke-width="1.51"/><path d="M-356,2L-248,290L-21,161Z" fill="#982930" stroke="#982930" stroke-width="1.51"/><path d="M1615,131L1629,50L1365,234Z" fill="#6c312b" stroke="#6c312b" stroke-width="1.51"/><path d="M-248,290L-255,443L66,376Z" fill="#b5746f" stroke="#b5746f" stroke-width="1.51"/><path d="M619,1212L1064,1216L665,902Z" fill="#7c7c7c" stroke="#7c7c7c" stroke-width="1.51"/><path d="M1539,381L1692,363L1615,131Z" fill="#806152" stroke="#806152" stroke-width="1.51"/><path d="M1615,131L1692,363L1629,50Z" fill="#733d33" stroke="#733d33" stroke-width="1.51"/><path d="M1799,770L1692,363L1539,381Z" fill="#7a7a7a" stroke="#7a7a7a" stroke-width="1.51"/><path d="M1799,770L1539,381L1394,704Z" fill="#666666" stroke="#666666" stroke-width="1.51"/><path d="M-102,939L288,1013L-7,738Z" fill="#511d20" stroke="#511d20" stroke-width="1.51"/><path d="M-102,939L163,1154L288,1013Z" fill="#5d2121" stroke="#5d2121" stroke-width="1.51"/><path d="M398,1135L163,1154L619,1212Z" fill="#7c5344" stroke="#7c5344" stroke-width="1.51"/><path d="M-317,748L-102,939L-7,738Z" fill="#5f3135" stroke="#5f3135" stroke-width="1.51"/><path d="M324,-356L-102,-355L48,-60Z" fill="#7e0623" stroke="#7e0623" stroke-width="1.51"/><path d="M48,-60L-356,2L-21,161Z" fill="#750322" stroke="#750322" stroke-width="1.51"/><path d="M1443,1143L1462,1033L1253,966Z" fill="#232323" stroke="#232323" stroke-width="1.51"/><path d="M1253,966L1462,1033L1394,704Z" fill="#262626" stroke="#262626" stroke-width="1.51"/><path d="M1635,-234L1533,-358L1510,-138Z" fill="#41171c" stroke="#41171c" stroke-width="1.51"/><path d="M1510,-138L1533,-358L1314,-218Z" fill="#41171c" stroke="#41171c" stroke-width="1.51"/><path d="M1314,-218L1533,-358L947,-187Z" fill="#65373b" stroke="#65373b" stroke-width="1.51"/><path d="M1629,50L1635,-234L1510,-138Z" fill="#41171c" stroke="#41171c" stroke-width="1.51"/><path d="M1692,363L1635,-234L1629,50Z" fill="#581f20" stroke="#581f20" stroke-width="1.51"/><path d="M-224,-358L-356,2L48,-60Z" fill="#67001f" stroke="#67001f" stroke-width="1.51"/><path d="M-248,290L-356,2L-255,443Z" fill="#a84e47" stroke="#a84e47" stroke-width="1.51"/><path d="M1064,1216L1281,1236L1253,966Z" fill="#444444" stroke="#444444" stroke-width="1.51"/><path d="M619,1212L1281,1236L1064,1216Z" fill="#666666" stroke="#666666" stroke-width="1.51"/><path d="M-255,443L-317,748L-7,738Z" fill="#936063" stroke="#936063" stroke-width="1.51"/><path d="M-356,2L-317,748L-255,443Z" fill="#b67977" stroke="#b67977" stroke-width="1.51"/><path d="M1281,1236L1443,1143L1253,966Z" fill="#2d2d2d" stroke="#2d2d2d" stroke-width="1.51"/><path d="M1462,1033L1622,1033L1394,704Z" fill="#1a1a1a" stroke="#1a1a1a" stroke-width="1.51"/><path d="M1533,-358L-224,-358L324,-356Z" fill="#b36c66" stroke="#b36c66" stroke-width="1.51"/><path d="M324,-356L-224,-358L-102,-355Z" fill="#67001f" stroke="#67001f" stroke-width="1.51"/><path d="M-102,-355L-224,-358L48,-60Z" fill="#67001f" stroke="#67001f" stroke-width="1.51"/><path d="M-317,748L-265,962L-102,939Z" fill="#471c21" stroke="#471c21" stroke-width="1.51"/><path d="M-102,939L-95,1173L163,1154Z" fill="#41171c" stroke="#41171c" stroke-width="1.51"/><path d="M1443,1143L1622,1033L1462,1033Z" fill="#1a1a1a" stroke="#1a1a1a" stroke-width="1.51"/><path d="M-214,1132L-95,1173L-102,939Z" fill="#41171c" stroke="#41171c" stroke-width="1.51"/><path d="M163,1154L-95,1173L619,1212Z" fill="#6d332c" stroke="#6d332c" stroke-width="1.51"/><path d="M1622,1033L1799,770L1394,704Z" fill="#2b2b2b" stroke="#2b2b2b" stroke-width="1.51"/><path d="M1692,363L1799,770L1635,-234Z" fill="#806355" stroke="#806355" stroke-width="1.51"/><path d="M-265,962L-214,1132L-102,939Z" fill="#41171c" stroke="#41171c" stroke-width="1.51"/><path d="M1622,1033L1771,1116L1799,770Z" fill="#1a1a1a" stroke="#1a1a1a" stroke-width="1.51"/><path d="M1443,1143L1771,1116L1622,1033Z" fill="#1a1a1a" stroke="#1a1a1a" stroke-width="1.51"/><path d="M1281,1236L1771,1116L1443,1143Z" fill="#1a1a1a" stroke="#1a1a1a" stroke-width="1.51"/></svg>